<?xml version="1.0" encoding="utf-8"?>
<!-- Generator: Adobe Illustrator 22.1.0, SVG Export Plug-In . SVG Version: 6.00 Build 0)  -->
<svg version="1.1" id="レイヤー_1" xmlns="http://www.w3.org/2000/svg" xmlns:xlink="http://www.w3.org/1999/xlink" x="0px"
	 y="0px" viewBox="0 0 288.8 83.9" style="enable-background:new 0 0 288.8 83.9;" xml:space="preserve">
<style type="text/css">
	.st0{fill:#858DDA;}
</style>
<g>
	<path class="st0" d="M242.6,21.8c0-2.7,1.2-5.1,3.5-7c2.4-1.9,5.6-2.9,9.9-2.9c3.8,0,7.5,0.7,11.2,2.2s7.4,3.6,11.2,6.3l7.8-10.9
		c-4.2-3.4-8.8-5.9-13.6-7.7c-4.8-1.8-10.3-2.6-16.3-2.6c-4.1,0-7.8,0.6-11.3,1.7s-6.4,2.8-8.8,4.9c-2.5,2.1-4.4,4.6-5.8,7.6
		c-1.4,2.9-2.1,6.2-2.1,9.8c0,3.8,0.6,7.1,1.8,9.8s3,4.9,5.3,6.8c2.3,1.9,5.2,3.5,8.6,4.7c3.4,1.3,7.3,2.4,11.8,3.4
		c3.8,0.9,7,1.8,9.4,2.7s4.3,1.8,5.7,2.8c1.4,1,2.3,2.1,2.8,3.2c0.5,1.2,0.8,2.5,0.8,4c0,3.2-1.3,5.8-3.9,7.7
		c-2.6,1.9-6.2,2.8-10.7,2.8c-5.2,0-9.8-0.9-13.9-2.8c-4.1-1.8-8.1-4.5-12.1-7.9l-8.7,10.4c4.9,4.5,10.3,7.8,16.1,9.9
		c5.8,2.2,11.9,3.2,18.2,3.2c4.3,0,8.3-0.5,11.9-1.6s6.7-2.7,9.2-4.8c2.6-2.1,4.6-4.7,6-7.8c1.4-3.1,2.2-6.6,2.2-10.5
		c0-3.5-0.6-6.5-1.7-9c-1.1-2.6-2.8-4.8-5-6.7s-5-3.6-8.3-4.9s-7.2-2.6-11.5-3.6c-3.9-0.9-7.2-1.8-9.7-2.7c-2.6-0.9-4.6-1.8-6-2.8
		c-1.5-1-2.5-2.1-3-3.3C242.9,24.9,242.6,23.5,242.6,21.8L242.6,21.8z"/>
	<polygon class="st0" points="187.4,27.5 187.4,82.8 201.8,82.8 201.8,19.2 	"/>
	<polygon class="st0" points="187.4,0.3 187.4,20.4 201.8,12.1 201.8,0.3 	"/>
	<polygon class="st0" points="107.1,82.8 164.8,82.8 164.8,69.7 121.5,69.7 121.5,0.3 107.1,0.3 	"/>
	<path class="st0" d="M50.1-0.3h-6.9h-6.9L0,82.8h15.3c9.3-22.1,18.4-43.6,27.9-65.7c9.5,22.1,18.6,43.5,27.9,65.7h15.3L50.1-0.3
		L50.1-0.3z"/>
</g>
</svg>
