<?xml version="1.0" encoding="utf-8"?>
<!-- Generator: Adobe Illustrator 22.1.0, SVG Export Plug-In . SVG Version: 6.00 Build 0)  -->
<svg version="1.1" id="レイヤー_1" xmlns="http://www.w3.org/2000/svg" xmlns:xlink="http://www.w3.org/1999/xlink" x="0px"
	 y="0px" viewBox="0 0 107.2 96.8" style="enable-background:new 0 0 107.2 96.8;" xml:space="preserve">
<style type="text/css">
	.st0{fill-rule:evenodd;clip-rule:evenodd;fill:#454A75;}
	.st1{fill-rule:evenodd;clip-rule:evenodd;fill:#51578A;}
	.st2{fill-rule:evenodd;clip-rule:evenodd;fill:#5C629C;}
	.st3{fill-rule:evenodd;clip-rule:evenodd;fill:#686FB0;}
	.st4{fill-rule:evenodd;clip-rule:evenodd;fill:#7880CC;}
	.st5{fill-rule:evenodd;clip-rule:evenodd;fill:#848DE0;}
</style>
<g>
	<path class="st0" d="M66.7,0l40.6,96.8H78.9C70.4,75.5,62,54.3,53.6,33c-8.4,21.3-16.8,42.5-25.2,63.8H0C13.5,64.5,27,32.3,40.6,0
		H66.7L66.7,0z"/>
	<polygon class="st1" points="0,96.8 43.3,59.1 22.4,43.4 0,96.8 	"/>
	<polygon class="st2" points="22.4,43.4 43.3,59.1 53.6,33 22.4,43.4 	"/>
	<polygon class="st3" points="22.4,43.4 53.6,33 33.3,17.2 22.4,43.4 	"/>
	<polygon class="st4" points="33.3,17.2 53.6,33 40.6,0 33.3,17.2 	"/>
	<polygon class="st5" points="40.6,0 53.6,33 66.7,0 40.6,0 	"/>
	<polygon class="st2" points="66.7,0 53.6,33 85.1,43.9 66.7,0 	"/>
	<polygon class="st3" points="85.1,43.9 53.6,33 64,59.1 85.1,43.9 	"/>
	<polygon class="st0" points="85.1,43.9 64,59.1 107.2,96.8 85.1,43.9 	"/>
	<polygon class="st1" points="107.2,96.8 64,59.1 72.2,79.9 78.9,96.8 107.2,96.8 	"/>
</g>
</svg>
