<?xml version="1.0" encoding="utf-8"?>
<!-- Generator: Adobe Illustrator 22.1.0, SVG Export Plug-In . SVG Version: 6.00 Build 0)  -->
<svg version="1.1" id="レイヤー_1" xmlns="http://www.w3.org/2000/svg" xmlns:xlink="http://www.w3.org/1999/xlink" x="0px"
	 y="0px" viewBox="0 0 960 378.7" style="enable-background:new 0 0 960 378.7;" xml:space="preserve">
<style type="text/css">
	.st0{clip-path:url(#SVGID_3_);}
	.st1{clip-path:url(#SVGID_4_);fill:#858DDA;}
	.st2{clip-path:url(#SVGID_7_);}
	.st3{clip-path:url(#SVGID_8_);fill:#858DDA;}
	.st4{clip-path:url(#SVGID_11_);}
	.st5{clip-path:url(#SVGID_12_);fill:#858DDA;}
	.st6{clip-path:url(#SVGID_15_);}
	.st7{clip-path:url(#SVGID_16_);fill:#858DDA;}
	.st8{clip-path:url(#SVGID_19_);}
	.st9{clip-path:url(#SVGID_20_);fill:#858DDA;}
	.st10{clip-path:url(#SVGID_23_);}
	.st11{clip-path:url(#SVGID_24_);fill:#858DDA;}
	.st12{fill:#858DDA;}
</style>
<g>
	<g>
		<defs>
			<rect id="SVGID_1_" x="-2" y="-292" width="964" height="964"/>
		</defs>
		<defs>
			<path id="SVGID_2_" d="M189.4,378.7C84.8,378.7,0,293.9,0,189.4S84.8,0,189.4,0s189.4,84.8,189.4,189.4S293.9,378.7,189.4,378.7
				L189.4,378.7z M189.4,366.5c97.8,0,177.1-79.3,177.1-177.1S287.2,12.2,189.4,12.2S12.2,91.5,12.2,189.4S91.5,366.5,189.4,366.5
				L189.4,366.5z"/>
		</defs>
		<use xlink:href="#SVGID_2_"  style="overflow:visible;fill-rule:evenodd;clip-rule:evenodd;fill:#858DDA;"/>
		<clipPath id="SVGID_3_">
			<use xlink:href="#SVGID_1_"  style="overflow:visible;"/>
		</clipPath>
		<clipPath id="SVGID_4_" class="st0">
			<use xlink:href="#SVGID_2_"  style="overflow:visible;"/>
		</clipPath>
		<rect x="-5" y="-5" class="st1" width="388.7" height="388.7"/>
	</g>
	<g>
		<defs>
			<rect id="SVGID_5_" x="-2" y="-292" width="964" height="964"/>
		</defs>
		<defs>
			<polygon id="SVGID_6_" points="491.3,108.5 523.7,108.5 593.2,269.9 558.7,269.9 508.2,147.5 457.6,269.9 423.1,269.9 
				491.3,108.5 			"/>
		</defs>
		<use xlink:href="#SVGID_6_"  style="overflow:visible;fill-rule:evenodd;clip-rule:evenodd;fill:#858DDA;"/>
		<clipPath id="SVGID_7_">
			<use xlink:href="#SVGID_5_"  style="overflow:visible;"/>
		</clipPath>
		<clipPath id="SVGID_8_" class="st2">
			<use xlink:href="#SVGID_6_"  style="overflow:visible;"/>
		</clipPath>
		<rect x="418.1" y="103.5" class="st3" width="180.2" height="171.4"/>
	</g>
	<g>
		<defs>
			<rect id="SVGID_9_" x="-2" y="-292" width="964" height="964"/>
		</defs>
		<defs>
			<polygon id="SVGID_10_" points="657.5,238.7 734.1,238.7 734.1,269.9 625.5,269.9 625.5,108.5 657.5,108.5 657.5,238.7 			"/>
		</defs>
		<use xlink:href="#SVGID_10_"  style="overflow:visible;fill-rule:evenodd;clip-rule:evenodd;fill:#858DDA;"/>
		<clipPath id="SVGID_11_">
			<use xlink:href="#SVGID_9_"  style="overflow:visible;"/>
		</clipPath>
		<clipPath id="SVGID_12_" class="st4">
			<use xlink:href="#SVGID_10_"  style="overflow:visible;"/>
		</clipPath>
		<rect x="620.5" y="103.5" class="st5" width="118.6" height="171.4"/>
	</g>
	<g>
		<defs>
			<rect id="SVGID_13_" x="-2" y="-292" width="964" height="964"/>
		</defs>
		<defs>
			<polygon id="SVGID_14_" points="766.3,108.5 797.9,108.5 797.9,141 766.3,157.3 766.3,108.5 			"/>
		</defs>
		<use xlink:href="#SVGID_14_"  style="overflow:visible;fill-rule:evenodd;clip-rule:evenodd;fill:#858DDA;"/>
		<clipPath id="SVGID_15_">
			<use xlink:href="#SVGID_13_"  style="overflow:visible;"/>
		</clipPath>
		<clipPath id="SVGID_16_" class="st6">
			<use xlink:href="#SVGID_14_"  style="overflow:visible;"/>
		</clipPath>
		<rect x="761.3" y="103.5" class="st7" width="41.5" height="58.8"/>
	</g>
	<g>
		<defs>
			<rect id="SVGID_17_" x="-2" y="-292" width="964" height="964"/>
		</defs>
		<defs>
			<polygon id="SVGID_18_" points="766.3,168.1 797.9,151.9 797.9,269.6 766.3,269.6 766.3,168.1 			"/>
		</defs>
		<use xlink:href="#SVGID_18_"  style="overflow:visible;fill-rule:evenodd;clip-rule:evenodd;fill:#858DDA;"/>
		<clipPath id="SVGID_19_">
			<use xlink:href="#SVGID_17_"  style="overflow:visible;"/>
		</clipPath>
		<clipPath id="SVGID_20_" class="st8">
			<use xlink:href="#SVGID_18_"  style="overflow:visible;"/>
		</clipPath>
		<rect x="761.3" y="146.9" class="st9" width="41.5" height="127.7"/>
	</g>
	<g>
		<defs>
			<rect id="SVGID_21_" x="-2" y="-292" width="964" height="964"/>
		</defs>
		<defs>
			<path id="SVGID_22_" d="M858.6,231.4c12.7,10,27.9,15.1,45.5,15.2c20.8-0.3,31.3-7.4,31.6-21.3c0.1-11.4-6.8-18.3-20.9-20.6
				c-6.4-0.8-13.5-1.8-21.2-2.8c-13.8-2.2-24.2-7-31.4-14.6c-7.4-7.8-11.1-17.2-11.1-28.3c0-13.4,4.6-24.1,13.9-32.3
				c9-8.1,21.8-12.2,38.3-12.4c19.9,0.4,37.2,5.7,51.9,15.8l-13.5,19.1c-12-7.6-25.2-11.5-39.6-11.8c-7.5,0-13.7,1.8-18.7,5.4
				c-5.2,3.7-7.9,9.2-8,16.6c0,4.4,1.8,8.4,5.4,12c3.6,3.6,9.3,6.2,17.2,7.6c4.4,0.7,10.4,1.5,18,2.4c15,2,26.1,7.1,33.3,15.4
				c7.1,8.2,10.6,17.7,10.6,28.5c-0.8,29.2-19.5,44.1-56.2,44.5c-23.7,0-44.1-7-61.2-21L858.6,231.4L858.6,231.4z"/>
		</defs>
		<use xlink:href="#SVGID_22_"  style="overflow:visible;fill-rule:evenodd;clip-rule:evenodd;fill:#858DDA;"/>
		<clipPath id="SVGID_23_">
			<use xlink:href="#SVGID_21_"  style="overflow:visible;"/>
		</clipPath>
		<clipPath id="SVGID_24_" class="st10">
			<use xlink:href="#SVGID_22_"  style="overflow:visible;"/>
		</clipPath>
		<rect x="837.6" y="109.3" class="st11" width="127.4" height="165.5"/>
	</g>
	<g>
		<path class="st12" d="M858.6,231.4c12.7,10,27.9,15.1,45.5,15.2c20.8-0.3,31.3-7.4,31.6-21.3c0.1-11.4-6.8-18.3-20.9-20.6
			c-6.4-0.8-13.5-1.8-21.2-2.8c-13.8-2.2-24.2-7-31.4-14.6c-7.4-7.8-11.1-17.2-11.1-28.3c0-13.4,4.6-24.1,13.9-32.3
			c9-8.1,21.8-12.2,38.3-12.4c19.9,0.4,37.2,5.7,51.9,15.8l-13.5,19.1c-12-7.6-25.2-11.5-39.6-11.8c-7.5,0-13.7,1.8-18.7,5.4
			c-5.2,3.7-7.9,9.2-8,16.6c0,4.4,1.8,8.4,5.4,12c3.6,3.6,9.3,6.2,17.2,7.6c4.4,0.7,10.4,1.5,18,2.4c15,2,26.1,7.1,33.3,15.4
			c7.1,8.2,10.6,17.7,10.6,28.5c-0.8,29.2-19.5,44.1-56.2,44.5c-23.7,0-44.1-7-61.2-21L858.6,231.4L858.6,231.4z"/>
	</g>
</g>
<g>
	<path class="st12" d="M219.9,67L313,291h-65.1c-19.5-49.3-38.7-98.3-58-147.6c-19.3,49.3-38.5,98.3-57.8,147.6H67
		c31-74.7,61.9-149.3,93.1-224H219.9L219.9,67z"/>
	<polygon class="st12" points="67,291 166.3,203.8 118.4,167.4 	"/>
	<polygon class="st12" points="118.4,167.4 166.3,203.8 189.9,143.4 	"/>
	<polygon class="st12" points="118.4,167.4 189.9,143.4 143.3,106.8 	"/>
	<polygon class="st12" points="143.3,106.8 189.9,143.4 160.1,67 	"/>
	<polygon class="st12" points="160.1,67 189.9,143.4 219.9,67 	"/>
	<polygon class="st12" points="219.9,67 189.9,143.4 262.1,168.6 	"/>
	<polygon class="st12" points="262.1,168.6 189.9,143.4 213.7,203.8 	"/>
	<polygon class="st12" points="262.1,168.6 213.7,203.8 312.8,291 	"/>
	<polygon class="st12" points="312.8,291 213.7,203.8 232.5,251.9 247.9,291 	"/>
</g>
</svg>
