<?xml version="1.0" encoding="utf-8"?>
<!-- Generator: Adobe Illustrator 22.1.0, SVG Export Plug-In . SVG Version: 6.00 Build 0)  -->
<svg version="1.1" id="レイヤー_1" xmlns="http://www.w3.org/2000/svg" xmlns:xlink="http://www.w3.org/1999/xlink" x="0px"
	 y="0px" viewBox="0 0 174.9 174.9" style="enable-background:new 0 0 174.9 174.9;" xml:space="preserve">
<style type="text/css">
	.st0{fill-rule:evenodd;clip-rule:evenodd;fill:#454A75;}
	.st1{fill-rule:evenodd;clip-rule:evenodd;fill:#51578A;}
	.st2{fill-rule:evenodd;clip-rule:evenodd;fill:#5C629C;}
	.st3{fill-rule:evenodd;clip-rule:evenodd;fill:#686FB0;}
	.st4{fill-rule:evenodd;clip-rule:evenodd;fill:#7880CC;}
	.st5{fill-rule:evenodd;clip-rule:evenodd;fill:#848DE0;}
	.st6{fill:#686FB0;}
</style>
<g>
	<path class="st0" d="M100.4,31.8l40.4,96.3h-28.2c-8.4-21.2-16.7-42.3-25.1-63.5c-8.4,21.2-16.7,42.3-25.1,63.5H34.1
		C47.5,96,61,63.9,74.4,31.8H100.4L100.4,31.8z"/>
	<polygon class="st1" points="34.1,128.1 77.2,90.7 56.4,75 34.1,128.1 	"/>
	<polygon class="st2" points="56.4,75 77.2,90.7 87.4,64.7 56.4,75 	"/>
	<polygon class="st3" points="56.4,75 87.4,64.7 67.3,49 56.4,75 	"/>
	<polygon class="st4" points="67.3,49 87.4,64.7 74.4,31.8 67.3,49 	"/>
	<polygon class="st5" points="74.4,31.8 87.4,64.7 100.4,31.8 74.4,31.8 	"/>
	<polygon class="st2" points="100.4,31.8 87.4,64.7 118.8,75.6 100.4,31.8 	"/>
	<polygon class="st3" points="118.8,75.6 87.4,64.7 97.7,90.7 118.8,75.6 	"/>
	<polygon class="st0" points="118.8,75.6 97.7,90.7 140.8,128.1 118.8,75.6 	"/>
	<polygon class="st1" points="140.8,128.1 97.7,90.7 105.9,111.3 112.5,128.1 140.8,128.1 	"/>
	<path class="st6" d="M87.4,0c24.1,0,46,9.8,61.8,25.6c15.8,15.8,25.6,37.7,25.6,61.8c0,24.1-9.8,46-25.6,61.8
		c-15.8,15.8-37.7,25.6-61.8,25.6c-24.1,0-46-9.8-61.8-25.6C9.8,133.4,0,111.6,0,87.4c0-24.1,9.8-46,25.6-61.8
		C41.4,9.8,63.3,0,87.4,0L87.4,0z M143.8,31.1C129.4,16.7,109.4,7.8,87.4,7.8s-41.9,8.9-56.3,23.3C16.7,45.5,7.8,65.4,7.8,87.4
		s8.9,41.9,23.3,56.3c14.4,14.4,34.3,23.3,56.3,23.3s41.9-8.9,56.3-23.3c14.4-14.4,23.3-34.3,23.3-56.3S158.2,45.5,143.8,31.1
		L143.8,31.1z"/>
</g>
</svg>
